<svg width="59" height="41" viewBox="0 0 59 41" fill="none" xmlns="http://www.w3.org/2000/svg">
<mask id="mask0_1981_6453" style="mask-type:alpha" maskUnits="userSpaceOnUse" x="0" y="0" width="59" height="41">
<rect y="0.387695" width="58.3333" height="40" fill="#016FD0"/>
</mask>
<g mask="url(#mask0_1981_6453)">
<rect y="0.387695" width="58.3333" height="40" rx="4" fill="#F2F2F2"/>
<path d="M11.3457 30.9867V21.8096H21.0626L22.1051 23.1686L23.1821 21.8096H58.4518V30.3538C58.4518 30.3538 57.5295 30.9775 56.4627 30.9867H36.9331L35.7577 29.54V30.9867H31.906V28.5172C31.906 28.5172 31.3799 28.8619 30.2424 28.8619H28.9314V30.9867H23.0996L22.0586 29.5985L21.0016 30.9867H11.3457Z" fill="white"/>
<path d="M0 14.8946L2.19119 9.78613H5.98062L7.22415 12.6477V9.78613H11.9348L12.675 11.8544L13.3927 9.78613H34.5385V10.8259C34.5385 10.8259 35.6501 9.78613 37.477 9.78613L44.338 9.81011L45.56 12.6342V9.78613H49.5021L50.5871 11.4083V9.78613H54.5654V18.9632H50.5871L49.5473 17.3358V18.9632H43.7555L43.1731 17.5166H41.6161L41.0431 18.9632H37.1153C35.5433 18.9632 34.5385 17.9447 34.5385 17.9447V18.9632H28.6163L27.4409 17.5166V18.9632H5.41924L4.83719 17.5166H3.28513L2.7072 18.9632H0V14.8946Z" fill="white"/>
<path d="M2.9652 10.9189L0.00976562 17.7905H1.93391L2.47922 16.4145H5.64939L6.19188 17.7905H8.1584L5.20579 10.9189H2.9652ZM4.05866 12.5182L5.02496 14.9226H3.08952L4.05866 12.5182Z" fill="#016FD0"/>
<path d="M8.36133 17.7866V10.915L11.0956 10.9252L12.686 15.3555L14.2383 10.915H16.9507V17.7866H15.2329V12.7233L13.4119 17.7866H11.9053L10.0792 12.7233V17.7866H8.36133Z" fill="#016FD0"/>
<path d="M18.127 17.7866V10.915H23.7327V12.4521H19.8629V13.6275H23.6423V15.0742H19.8629V16.2948H23.7327V17.7866H18.127Z" fill="#016FD0"/>
<path d="M24.7266 10.9189V17.7905H26.4445V15.3493H27.1678L29.2276 17.7905H31.3269L29.0665 15.2589C29.9942 15.1806 30.9511 14.3844 30.9511 13.1483C30.9511 11.7022 29.8162 10.9189 28.5494 10.9189H24.7266ZM26.4445 12.456H28.4082C28.8792 12.456 29.2219 12.8245 29.2219 13.1793C29.2219 13.6359 28.7779 13.9027 28.4336 13.9027H26.4445V12.456Z" fill="#016FD0"/>
<path d="M33.4084 17.7866H31.6543V10.915H33.4084V17.7866Z" fill="#016FD0"/>
<path d="M37.5669 17.7866H37.1883C35.3564 17.7866 34.2441 16.3434 34.2441 14.3791C34.2441 12.3663 35.3439 10.915 37.6573 10.915H39.5561V12.5425H37.5879C36.6488 12.5425 35.9846 13.2754 35.9846 14.396C35.9846 15.7268 36.7441 16.2857 37.8382 16.2857H38.2902L37.5669 17.7866Z" fill="#016FD0"/>
<path d="M41.307 10.9189L38.3516 17.7905H40.2757L40.821 16.4145H43.9912L44.5337 17.7905H46.5002L43.5476 10.9189H41.307ZM42.4005 12.5182L43.3668 14.9226H41.4313L42.4005 12.5182Z" fill="#016FD0"/>
<path d="M46.6992 17.7866V10.915H48.8833L51.6721 15.2324V10.915H53.39V17.7866H51.2765L48.4171 13.3563V17.7866H46.6992Z" fill="#016FD0"/>
<path d="M12.5234 29.814V22.9424H18.1292V24.4795H14.2594V25.6549H18.0388V27.1015H14.2594V28.3221H18.1292V29.814H12.5234Z" fill="#016FD0"/>
<path d="M39.9902 29.814V22.9424H45.596V24.4795H41.7262V25.6549H45.4875V27.1015H41.7262V28.3221H45.596V29.814H39.9902Z" fill="#016FD0"/>
<path d="M18.3462 29.8139L21.0756 26.4205L18.2812 22.9424H20.4456L22.1098 25.0926L23.7796 22.9424H25.8591L23.1015 26.3781L25.8359 29.8139H23.672L22.0561 27.6976L20.4795 29.8139H18.3462Z" fill="#016FD0"/>
<path d="M26.0391 22.9424V29.814H27.8022V27.644H29.6105C31.1406 27.644 32.3003 26.8323 32.3003 25.2536C32.3003 23.9459 31.3907 22.9424 29.8337 22.9424H26.0391ZM27.8022 24.4964H29.7065C30.2009 24.4964 30.5542 24.7994 30.5542 25.2875C30.5542 25.7461 30.2026 26.0787 29.7009 26.0787H27.8022V24.4964Z" fill="#016FD0"/>
<path d="M33.0469 22.9424V29.814H34.7648V27.3727H35.4881L37.5479 29.814H39.6472L37.3868 27.2823C38.3145 27.204 39.2714 26.4078 39.2714 25.1717C39.2714 23.7257 38.1365 22.9424 36.8698 22.9424H33.0469ZM34.7648 24.4795H36.7285C37.1996 24.4795 37.5422 24.8479 37.5422 25.2028C37.5422 25.6593 37.0982 25.9261 36.7539 25.9261H34.7648V24.4795Z" fill="#016FD0"/>
<path d="M46.392 29.814V28.3221H49.83C50.3387 28.3221 50.559 28.0472 50.559 27.7457C50.559 27.4568 50.3394 27.1648 49.83 27.1648H48.2764C46.9259 27.1648 46.1738 26.342 46.1738 25.1067C46.1738 24.0049 46.8626 22.9424 48.8693 22.9424H52.2147L51.4914 24.4885H48.5981C48.045 24.4885 47.8748 24.7787 47.8748 25.0559C47.8748 25.3407 48.0852 25.6549 48.5077 25.6549H50.1352C51.6406 25.6549 52.2938 26.5088 52.2938 27.627C52.2938 28.8293 51.5659 29.814 50.0532 29.814H46.392Z" fill="#016FD0"/>
<path d="M52.6947 29.814V28.3221H56.1327C56.6415 28.3221 56.8617 28.0472 56.8617 27.7457C56.8617 27.4568 56.6421 27.1648 56.1327 27.1648H54.5791C53.2287 27.1648 52.4766 26.342 52.4766 25.1067C52.4766 24.0049 53.1653 22.9424 55.1721 22.9424H58.4491L57.7941 24.4885H54.9008C54.3478 24.4885 54.1775 24.7787 54.1775 25.0559C54.1775 25.3407 54.3879 25.6549 54.8104 25.6549H56.4379C57.9433 25.6549 58.5966 26.5088 58.5966 27.627C58.5966 28.8293 57.8686 29.814 56.3559 29.814H52.6947Z" fill="#016FD0"/>
</g>
</svg>
