<svg width="60" height="41" viewBox="0 0 60 41" fill="none" xmlns="http://www.w3.org/2000/svg">
<rect x="0.667969" y="0.387695" width="58.3333" height="40" rx="4" fill="#F2F2F2"/>
<path d="M26.084 40.3851L59.0007 30.8018V36.3851C59.0007 38.5942 57.2098 40.3851 55.0007 40.3851H26.084Z" fill="#FD6020"/>
<path fill-rule="evenodd" clip-rule="evenodd" d="M50.9766 16.4092C52.7875 16.4092 53.7835 17.2151 53.7835 18.7373C53.874 19.9014 53.0591 20.8864 51.9726 21.0655L54.4173 24.3787H52.5158L50.4333 21.1551H50.2522V24.3787H48.7129V16.4092H50.9766ZM50.252 20.0808H50.7047C51.7007 20.0808 52.1534 19.6331 52.1534 18.8272C52.1534 18.1108 51.7007 17.6631 50.7047 17.6631H50.252V20.0808ZM43.373 24.3787H47.7193V23.0355H44.9123V20.8864H47.6287V19.5433H44.9123V17.7524H47.7193V16.4092H43.373V24.3787ZM38.8452 21.7819L36.7626 16.4092H35.1328L38.483 24.5578H39.2979L42.6482 16.4092H41.0183L38.8452 21.7819ZM20.4629 20.4388C20.4629 22.6774 22.2738 24.5579 24.5375 24.5579C25.2618 24.5579 25.8957 24.3788 26.5295 24.1101V22.3192C26.0768 22.8565 25.4429 23.2147 24.7186 23.2147C23.2698 23.2147 22.0927 22.1402 22.0927 20.7074V20.5283C22.0022 19.0956 23.1793 17.842 24.628 17.7525C25.3524 17.7525 26.0768 18.1106 26.5295 18.6479V16.857C25.9862 16.4988 25.2618 16.4093 24.628 16.4093C22.2738 16.2302 20.4629 18.1106 20.4629 20.4388ZM17.6567 19.4549C16.7512 19.0967 16.4796 18.9176 16.4796 18.4699C16.5701 17.9326 17.0229 17.4849 17.5662 17.5744C18.0189 17.5744 18.4716 17.8431 18.8338 18.2012L19.6487 17.1267C19.0149 16.5894 18.2 16.2312 17.3851 16.2312C16.1174 16.1417 15.0309 17.1267 14.9403 18.3803V18.4699C14.9403 19.5444 15.393 20.1712 16.8418 20.6189C17.204 20.7085 17.5662 20.8876 17.9283 21.0667C18.2 21.2458 18.3811 21.5144 18.3811 21.8726C18.3811 22.4994 17.8378 23.0367 17.2945 23.0367H17.204C16.4796 23.0367 15.8458 22.5889 15.5741 21.9621L14.5781 22.9471C15.1214 23.9321 16.208 24.4694 17.2945 24.4694C18.7433 24.5589 19.9204 23.4844 20.0109 22.0517V21.783C19.9204 20.7085 19.4676 20.1712 17.6567 19.4549ZM12.4043 24.3787H13.9436V16.4092H12.4043V24.3787ZM5.25195 16.4092H7.51561H7.96834C10.1415 16.4987 11.8618 18.2896 11.7713 20.4387C11.7713 21.6028 11.228 22.6773 10.3225 23.4832C9.50763 24.11 8.51162 24.4682 7.51561 24.3787H5.25195V16.4092ZM7.24375 23.0376C7.96812 23.1272 8.78304 22.8585 9.32631 22.4108C9.86959 21.8735 10.1412 21.1572 10.1412 20.3513C10.1412 19.6349 9.86959 18.9185 9.32631 18.3813C8.78304 17.9336 7.96812 17.6649 7.24375 17.7545H6.79102V23.0376H7.24375Z" fill="black"/>
<path fill-rule="evenodd" clip-rule="evenodd" d="M31.1495 16.2236C28.8858 16.2236 26.9844 18.0145 26.9844 20.3427C26.9844 22.5813 28.7953 24.4618 31.1495 24.5513C33.5037 24.6409 35.3146 22.7604 35.4052 20.4322C35.3146 18.1041 33.5037 16.2236 31.1495 16.2236V16.2236Z" fill="#FD6020"/>
</svg>
