<svg width="59" height="41" viewBox="0 0 59 41" fill="none" xmlns="http://www.w3.org/2000/svg">
<rect y="0.387695" width="58.3333" height="40" rx="4" fill="#F2F2F2"/>
<path fill-rule="evenodd" clip-rule="evenodd" d="M29.5819 28.9814C27.596 30.6951 25.0199 31.7297 22.205 31.7297C15.9239 31.7297 10.832 26.5787 10.832 20.2247C10.832 13.8707 15.9239 8.71973 22.205 8.71973C25.0199 8.71973 27.596 9.75428 29.5819 11.468C31.5679 9.75428 34.144 8.71973 36.9589 8.71973C43.24 8.71973 48.3318 13.8707 48.3318 20.2247C48.3318 26.5787 43.24 31.7297 36.9589 31.7297C34.144 31.7297 31.5679 30.6951 29.5819 28.9814Z" fill="#ED0006"/>
<path fill-rule="evenodd" clip-rule="evenodd" d="M29.582 28.9813C32.0274 26.8711 33.578 23.7311 33.578 20.2247C33.578 16.7183 32.0274 13.5783 29.582 11.4681C31.568 9.75429 34.1441 8.71973 36.959 8.71973C43.2401 8.71973 48.332 13.8707 48.332 20.2247C48.332 26.5787 43.2401 31.7297 36.959 31.7297C34.1441 31.7297 31.568 30.6951 29.582 28.9813Z" fill="#F9A000"/>
<path fill-rule="evenodd" clip-rule="evenodd" d="M29.5858 28.985C32.0312 26.8748 33.5818 23.7348 33.5818 20.2284C33.5818 16.7219 32.0312 13.5819 29.5858 11.4717C27.1405 13.5819 25.5898 16.7219 25.5898 20.2284C25.5898 23.7348 27.1405 26.8748 29.5858 28.985Z" fill="#FF5E00"/>
</svg>
