<svg width="59" height="41" viewBox="0 0 59 41" fill="none" xmlns="http://www.w3.org/2000/svg">
<rect x="0.333984" y="0.387695" width="58.3333" height="40" rx="4" fill="#F2F2F2"/>
<path d="M25.2905 27.1925H21.9922L24.0552 14.4365H27.3533L25.2905 27.1925Z" fill="#00579F"/>
<path d="M37.2456 14.7482C36.595 14.4901 35.5631 14.2051 34.2872 14.2051C31.0301 14.2051 28.7364 15.942 28.7223 18.4252C28.6953 20.2573 30.3645 21.275 31.613 21.8858C32.8891 22.5101 33.3228 22.9175 33.3228 23.4739C33.3099 24.3285 32.2917 24.7224 31.3421 24.7224C30.0253 24.7224 29.3197 24.5193 28.2474 24.0439L27.8131 23.8401L27.3516 26.7035C28.1251 27.056 29.5504 27.3687 31.0301 27.3824C34.4909 27.3824 36.744 25.6724 36.7707 23.0261C36.7838 21.574 35.9024 20.4613 34.0021 19.5521C32.8485 18.9685 32.142 18.5749 32.142 17.9777C32.1555 17.4348 32.7395 16.8788 34.0418 16.8788C35.114 16.8515 35.9019 17.1093 36.4987 17.3672L36.797 17.5027L37.2456 14.7482Z" fill="#00579F"/>
<path d="M41.6323 22.6735C41.9039 21.9407 42.9491 19.1045 42.9491 19.1045C42.9354 19.1317 43.2202 18.3582 43.3831 17.8833L43.6136 18.9824C43.6136 18.9824 44.2382 22.0358 44.3738 22.6735C43.8584 22.6735 42.2838 22.6735 41.6323 22.6735ZM45.7036 14.4365H43.1524C42.3657 14.4365 41.7679 14.667 41.4285 15.4949L36.5293 27.1923H39.9901C39.9901 27.1923 40.5599 25.618 40.6823 25.2789C41.062 25.2789 44.4287 25.2789 44.9171 25.2789C45.0118 25.7267 45.3106 27.1923 45.3106 27.1923H48.3645L45.7036 14.4365Z" fill="#00579F"/>
<path d="M19.237 14.4365L16.0068 23.1349L15.6539 21.3708C15.0567 19.3352 13.1838 17.1236 11.0938 16.0239L14.0524 27.179H17.5403L22.7246 14.4365H19.237Z" fill="#00579F"/>
<path d="M13.0074 14.4365H7.70077L7.64648 14.6943C11.786 15.7528 14.5275 18.3044 15.6539 21.3713L14.5003 15.5088C14.3104 14.6941 13.7267 14.4634 13.0074 14.4365Z" fill="#FAA61A"/>
</svg>
